<svg xmlns="http://www.w3.org/2000/svg">
    <symbol id="arrow" viewBox="0 0 20 20" fill="none" stroke="currentColor">
        <path d="M12.5 15L7.5 10L12.5 5" stroke="currentColor" stroke-width="2" stroke-linecap="round"/>
    </symbol>

    <symbol id="close" viewBox="0 0 24 24" fill="none" stroke="currentColor">
        <!-- Uploaded to: SVG Repo, www.svgrepo.com, Generator: SVG Repo Mixer Tools -->

<g id="Menu / Close_SM">
<path id="Vector" d="M16 16L12 12M12 12L8 8M12 12L16 8M12 12L8 16" stroke="currentColor" stroke-width="2" stroke-linecap="round" stroke-linejoin="round"/>
</g>
    </symbol>

    <symbol id="edit" viewBox="0 0 24 24" fill="none" stroke="currentColor">
        <path fill-rule="evenodd" clip-rule="evenodd" d="M20.8477 1.87868C19.6761 0.707109 17.7766 0.707105 16.605 1.87868L2.44744 16.0363C2.02864 16.4551 1.74317 16.9885 1.62702 17.5692L1.03995 20.5046C0.760062 21.904 1.9939 23.1379 3.39334 22.858L6.32868 22.2709C6.90945 22.1548 7.44285 21.8693 7.86165 21.4505L22.0192 7.29289C23.1908 6.12132 23.1908 4.22183 22.0192 3.05025L20.8477 1.87868ZM18.0192 3.29289C18.4098 2.90237 19.0429 2.90237 19.4335 3.29289L20.605 4.46447C20.9956 4.85499 20.9956 5.48815 20.605 5.87868L17.9334 8.55027L15.3477 5.96448L18.0192 3.29289ZM13.9334 7.3787L3.86165 17.4505C3.72205 17.5901 3.6269 17.7679 3.58818 17.9615L3.00111 20.8968L5.93645 20.3097C6.13004 20.271 6.30784 20.1759 6.44744 20.0363L16.5192 9.96448L13.9334 7.3787Z" fill="currentColor"/>
    </symbol>

    <symbol id="eye-off" viewBox="0 0 24 24" fill="none" stroke="currentColor">
        <!-- Uploaded to: SVG Repo, www.svgrepo.com, Generator: SVG Repo Mixer Tools -->

<path d="M4.4955 7.44088C3.54724 8.11787 2.77843 8.84176 2.1893 9.47978C0.857392 10.9222 0.857393 13.0778 2.1893 14.5202C3.9167 16.391 7.18879 19 12 19C13.2958 19 14.4799 18.8108 15.5523 18.4977L13.8895 16.8349C13.2936 16.9409 12.6638 17 12 17C7.9669 17 5.18832 14.82 3.65868 13.1634C3.03426 12.4872 3.03426 11.5128 3.65868 10.8366C4.23754 10.2097 4.99526 9.50784 5.93214 8.87753L4.4955 7.44088Z" fill="currentColor"/>
<path d="M8.53299 11.4784C8.50756 11.6486 8.49439 11.8227 8.49439 12C8.49439 13.933 10.0614 15.5 11.9944 15.5C12.1716 15.5 12.3458 15.4868 12.516 15.4614L8.53299 11.4784Z" fill="currentColor"/>
<path d="M15.4661 12.4471L11.5473 8.52829C11.6937 8.50962 11.8429 8.5 11.9944 8.5C13.9274 8.5 15.4944 10.067 15.4944 12C15.4944 12.1515 15.4848 12.3007 15.4661 12.4471Z" fill="currentColor"/>
<path d="M18.1118 15.0928C19.0284 14.4702 19.7715 13.7805 20.3413 13.1634C20.9657 12.4872 20.9657 11.5128 20.3413 10.8366C18.8117 9.18002 16.0331 7 12 7C11.3594 7 10.7505 7.05499 10.1732 7.15415L8.50483 5.48582C9.5621 5.1826 10.7272 5 12 5C16.8112 5 20.0833 7.60905 21.8107 9.47978C23.1426 10.9222 23.1426 13.0778 21.8107 14.5202C21.2305 15.1486 20.476 15.8603 19.5474 16.5284L18.1118 15.0928Z" fill="currentColor"/>
<path d="M2.00789 3.42207C1.61736 3.03155 1.61736 2.39838 2.00789 2.00786C2.39841 1.61733 3.03158 1.61733 3.4221 2.00786L22.0004 20.5862C22.391 20.9767 22.391 21.6099 22.0004 22.0004C21.6099 22.3909 20.9767 22.3909 20.5862 22.0004L2.00789 3.42207Z" fill="currentColor"/>
    </symbol>

    <symbol id="eye" viewBox="0 0 24 24" fill="none" stroke="currentColor">
        <!-- Uploaded to: SVG Repo, www.svgrepo.com, Generator: SVG Repo Mixer Tools -->

<path fill-rule="evenodd" clip-rule="evenodd" d="M11.9944 15.5C13.9274 15.5 15.4944 13.933 15.4944 12C15.4944 10.067 13.9274 8.5 11.9944 8.5C10.0614 8.5 8.49439 10.067 8.49439 12C8.49439 13.933 10.0614 15.5 11.9944 15.5ZM11.9944 13.4944C11.1691 13.4944 10.5 12.8253 10.5 12C10.5 11.1747 11.1691 10.5056 11.9944 10.5056C12.8197 10.5056 13.4888 11.1747 13.4888 12C13.4888 12.8253 12.8197 13.4944 11.9944 13.4944Z" fill="currentColor"/>
<path fill-rule="evenodd" clip-rule="evenodd" d="M12 5C7.18879 5 3.9167 7.60905 2.1893 9.47978C0.857392 10.9222 0.857393 13.0778 2.1893 14.5202C3.9167 16.391 7.18879 19 12 19C16.8112 19 20.0833 16.391 21.8107 14.5202C23.1426 13.0778 23.1426 10.9222 21.8107 9.47978C20.0833 7.60905 16.8112 5 12 5ZM3.65868 10.8366C5.18832 9.18002 7.9669 7 12 7C16.0331 7 18.8117 9.18002 20.3413 10.8366C20.9657 11.5128 20.9657 12.4872 20.3413 13.1634C18.8117 14.82 16.0331 17 12 17C7.9669 17 5.18832 14.82 3.65868 13.1634C3.03426 12.4872 3.03426 11.5128 3.65868 10.8366Z" fill="currentColor"/>
    </symbol>

    <symbol id="file" viewBox="0 0 17 21" fill="none" stroke="currentColor">
        <path d="M10.1657 1H2.83315C2.34697 1 1.8807 1.19317 1.53692 1.53702C1.19313 1.88086 1 2.34721 1 2.83348V17.5013C1 17.9876 1.19313 18.4539 1.53692 18.7978C1.8807 19.1416 2.34697 19.3348 2.83315 19.3348H13.832C14.3182 19.3348 14.7845 19.1416 15.1283 18.7978C15.4721 18.4539 15.6652 17.9876 15.6652 17.5013V6.50044M10.1657 1C10.4559 0.999533 10.7433 1.05648 11.0113 1.16755C11.2794 1.27863 11.5228 1.44165 11.7276 1.64722L15.0163 4.93648C15.2223 5.14138 15.3858 5.38509 15.4972 5.65352C15.6086 5.92196 15.6657 6.20981 15.6652 6.50044M10.1657 1V5.5837C10.1657 5.82683 10.2623 6.06001 10.4342 6.23193C10.6061 6.40385 10.8392 6.50044 11.0823 6.50044L15.6652 6.50044" stroke="currentColor" stroke-width="2" stroke-linecap="round"/>
    </symbol>

    <symbol id="home" viewBox="0 0 19 20" fill="none" stroke="currentColor">
        <path d="M12 18.4167V11.0833C12 10.8402 11.9034 10.6071 11.7315 10.4352C11.5596 10.2632 11.3264 10.1667 11.0833 10.1667H7.41667C7.17355 10.1667 6.94039 10.2632 6.76849 10.4352C6.59658 10.6071 6.5 10.8402 6.5 11.0833V18.4167M1 8.33377C0.999936 8.06708 1.05806 7.80359 1.17031 7.56168C1.28255 7.31977 1.44623 7.10525 1.64992 6.93311L8.06658 1.43311C8.39749 1.15344 8.81674 1 9.25 1C9.68326 1 10.1025 1.15344 10.4334 1.43311L16.8501 6.93311C17.0538 7.10525 17.2174 7.31977 17.3297 7.56168C17.4419 7.80359 17.5001 8.06708 17.5 8.33377V16.5838C17.5 17.07 17.3068 17.5363 16.963 17.8801C16.6192 18.224 16.1529 18.4171 15.6667 18.4171H2.83333C2.3471 18.4171 1.88079 18.224 1.53697 17.8801C1.19315 17.5363 1 17.07 1 16.5838V8.33377Z" stroke="currentColor" stroke-width="2" stroke-linecap="round"/>
    </symbol>

    <symbol id="info" viewBox="0 0 19 19" fill="none" stroke="currentColor">
        <path d="M9.334 12.6676V9.334M9.334 6.0004H9.34233M17.668 9.334C17.668 13.9367 13.9367 17.668 9.334 17.668C4.73126 17.668 1 13.9367 1 9.334C1 4.73126 4.73126 1 9.334 1C13.9367 1 17.668 4.73126 17.668 9.334Z" stroke="currentColor" stroke-width="2" stroke-linecap="round"/>
    </symbol>

    <symbol id="notify" viewBox="0 0 19 21" fill="none" stroke="currentColor">
        <path d="M7.66119 18.4181C7.82211 18.6968 8.05355 18.9283 8.33224 19.0892C8.61094 19.2501 8.92708 19.3348 9.24889 19.3348C9.5707 19.3348 9.88684 19.2501 10.1655 19.0892C10.4442 18.9283 10.6757 18.6968 10.8366 18.4181M1.2395 13.2165C1.11975 13.3478 1.04072 13.511 1.01203 13.6864C0.98334 13.8617 1.00622 14.0416 1.0779 14.2042C1.14957 14.3668 1.26694 14.5051 1.41574 14.6022C1.56454 14.6993 1.73834 14.751 1.91602 14.7512H16.583C16.7606 14.7512 16.9345 14.6997 17.0834 14.6027C17.2323 14.5058 17.3498 14.3677 17.4217 14.2053C17.4935 14.0428 17.5166 13.8629 17.4882 13.6875C17.4597 13.5122 17.3809 13.3489 17.2613 13.2174C16.0421 11.9606 14.7496 10.6249 14.7496 6.50046C14.7496 5.04165 14.1701 3.64259 13.1387 2.61105C12.1072 1.57951 10.7082 1 9.2495 1C7.79078 1 6.3918 1.57951 5.36033 2.61105C4.32886 3.64259 3.74939 5.04165 3.74939 6.50046C3.74939 10.6249 2.45594 11.9606 1.2395 13.2165Z" stroke="currentColor" stroke-width="2" stroke-linecap="round"/>
    </symbol>

    <symbol id="paperclip" viewBox="0 0 20 20" fill="none" stroke="currentColor">
        <path d="M13.3334 4.99934L6.32119 12.155C6.00854 12.4677 5.8329 12.8917 5.8329 13.3339C5.8329 13.7761 6.00854 14.2001 6.32119 14.5128C6.63384 14.8254 7.05789 15.0011 7.50004 15.0011C7.94219 15.0011 8.36624 14.8254 8.67889 14.5128L15.6911 7.35707C16.3163 6.73187 16.6676 5.88392 16.6676 4.99976C16.6676 4.1156 16.3163 3.26764 15.6911 2.64245C15.0659 2.01725 14.218 1.66602 13.3339 1.66602C12.4497 1.66602 11.6018 2.01725 10.9766 2.64245L3.9935 9.76897C3.52296 10.2319 3.14873 10.7834 2.89241 11.3917C2.63608 12 2.50273 12.6531 2.50004 13.3132C2.49735 13.9733 2.62538 14.6274 2.87675 15.2377C3.12811 15.8481 3.49783 16.4026 3.96459 16.8694C4.43134 17.3362 4.98589 17.7059 5.59625 17.9573C6.20661 18.2086 6.86069 18.3367 7.52078 18.334C8.18086 18.3313 8.83388 18.1979 9.44217 17.9416C10.0505 17.6853 10.602 17.311 11.0649 16.8405L18.048 9.71397" stroke="currentColor" stroke-width="2" stroke-linecap="round"/>
    </symbol>

    <symbol id="plus" viewBox="0 0 17 17" fill="none" stroke="currentColor">
        <path d="M10.7508 6.25042L6.25042 10.7508M6.25042 6.25042L10.7508 10.7508M16.0012 8.5006C16.0012 12.6431 12.6431 16.0012 8.5006 16.0012C4.35813 16.0012 1 12.6431 1 8.5006C1 4.35813 4.35813 1 8.5006 1C12.6431 1 16.0012 4.35813 16.0012 8.5006Z" stroke="currentColor" stroke-width="2" stroke-linecap="round"/>
    </symbol>

    <symbol id="reply" viewBox="0 0 24 24" fill="none" stroke="currentColor">
        <!-- Uploaded to: SVG Repo, www.svgrepo.com, Generator: SVG Repo Mixer Tools -->

<path fill-rule="evenodd" clip-rule="evenodd" d="M6.4 3.80353C7.55322 2.26658 10 3.08182 10 5.00302V8.00928C14.6772 7.86093 17.7771 9.50672 19.7796 11.7657C21.8614 14.1142 22.6633 17.0184 22.9781 18.9028C23.116 19.7283 22.5806 20.3237 22.0149 20.5275C21.4711 20.7234 20.7467 20.6283 20.2749 20.0531C18.6945 18.1261 15.5 15.4884 10 15.4884V18.997C10 20.9182 7.55321 21.7334 6.4 20.1965L1.6 13.7992C0.800001 12.733 0.800001 11.267 1.6 10.2008L6.4 3.80353ZM8 5.00302L3.2 11.4003C2.93333 11.7557 2.93333 12.2443 3.2 12.5997L8 18.997V14.5C8 13.9477 8.44772 13.5 9 13.5H10C17 13.5 20.6009 17.4621 20.6009 17.4621C20.1828 16.0361 19.4749 14.4371 18.2829 13.0924C16.7183 11.3273 14.5 10 10 10H9C8.44772 10 8 9.55228 8 9V5.00302Z" fill="currentColor"/>
    </symbol>

    <symbol id="search" viewBox="0 0 14 14" fill="none" stroke="currentColor">
        <path d="M13.0001 13.0001L10.1068 10.1068M11.6667 6.33333C11.6667 9.27885 9.27885 11.6667 6.33333 11.6667C3.38781 11.6667 1 9.27885 1 6.33333C1 3.38781 3.38781 1 6.33333 1C9.27885 1 11.6667 3.38781 11.6667 6.33333Z" stroke="currentColor" stroke-width="2" stroke-linecap="round"/>
    </symbol>

    <symbol id="settings" viewBox="0 0 24 24" fill="none" stroke="currentColor">
        <!-- Uploaded to: SVG Repo, www.svgrepo.com, Generator: SVG Repo Mixer Tools -->

<circle cx="12" cy="12" r="3" stroke="currentColor" stroke-width="1.5"/>
<path d="M3.66122 10.6392C4.13377 10.9361 4.43782 11.4419 4.43782 11.9999C4.43781 12.558 4.13376 13.0638 3.66122 13.3607C3.33966 13.5627 3.13248 13.7242 2.98508 13.9163C2.66217 14.3372 2.51966 14.869 2.5889 15.3949C2.64082 15.7893 2.87379 16.1928 3.33973 16.9999C3.80568 17.8069 4.03865 18.2104 4.35426 18.4526C4.77508 18.7755 5.30694 18.918 5.83284 18.8488C6.07287 18.8172 6.31628 18.7185 6.65196 18.5411C7.14544 18.2803 7.73558 18.2699 8.21895 18.549C8.70227 18.8281 8.98827 19.3443 9.00912 19.902C9.02332 20.2815 9.05958 20.5417 9.15224 20.7654C9.35523 21.2554 9.74458 21.6448 10.2346 21.8478C10.6022 22 11.0681 22 12 22C12.9319 22 13.3978 22 13.7654 21.8478C14.2554 21.6448 14.6448 21.2554 14.8478 20.7654C14.9404 20.5417 14.9767 20.2815 14.9909 19.9021C15.0117 19.3443 15.2977 18.8281 15.7811 18.549C16.2644 18.27 16.8545 18.2804 17.3479 18.5412C17.6837 18.7186 17.9271 18.8173 18.1671 18.8489C18.693 18.9182 19.2249 18.7756 19.6457 18.4527C19.9613 18.2106 20.1943 17.807 20.6603 17C20.8677 16.6407 21.029 16.3614 21.1486 16.1272M20.3387 13.3608C19.8662 13.0639 19.5622 12.5581 19.5621 12.0001C19.5621 11.442 19.8662 10.9361 20.3387 10.6392C20.6603 10.4372 20.8674 10.2757 21.0148 10.0836C21.3377 9.66278 21.4802 9.13092 21.411 8.60502C21.3591 8.2106 21.1261 7.80708 20.6601 7.00005C20.1942 6.19301 19.9612 5.7895 19.6456 5.54732C19.2248 5.22441 18.6929 5.0819 18.167 5.15113C17.927 5.18274 17.6836 5.2814 17.3479 5.45883C16.8544 5.71964 16.2643 5.73004 15.781 5.45096C15.2977 5.1719 15.0117 4.6557 14.9909 4.09803C14.9767 3.71852 14.9404 3.45835 14.8478 3.23463C14.6448 2.74458 14.2554 2.35523 13.7654 2.15224C13.3978 2 12.9319 2 12 2C11.0681 2 10.6022 2 10.2346 2.15224C9.74458 2.35523 9.35523 2.74458 9.15224 3.23463C9.05958 3.45833 9.02332 3.71848 9.00912 4.09794C8.98826 4.65566 8.70225 5.17191 8.21891 5.45096C7.73557 5.73002 7.14548 5.71959 6.65205 5.4588C6.31633 5.28136 6.0729 5.18269 5.83285 5.15108C5.30695 5.08185 4.77509 5.22436 4.35427 5.54727C4.03866 5.78945 3.80569 6.19297 3.33974 7C3.13231 7.35929 2.97105 7.63859 2.85138 7.87273" stroke="currentColor" stroke-width="1.5" stroke-linecap="round"/>
    </symbol>

    <symbol id="smile" viewBox="0 0 20 20" fill="none" stroke="currentColor">
        <g clip-path="url(#clip0_3_1145)">
<path d="M6.66642 11.6668C6.66642 11.6668 7.91652 13.3336 10 13.3336C12.0835 13.3336 13.3336 11.6668 13.3336 11.6668M7.49982 7.49982H7.50815M12.5002 7.49982H12.5085M18.334 10C18.334 14.6028 14.6028 18.334 10 18.334C5.39727 18.334 1.66602 14.6028 1.66602 10C1.66602 5.39727 5.39727 1.66602 10 1.66602C14.6028 1.66602 18.334 5.39727 18.334 10Z" stroke="currentColor" stroke-width="2" stroke-linecap="round"/>
</g>
<defs>
<clipPath id="clip0_3_1145">
<rect width="20" height="20" fill="currentColor"/>
</clipPath>
</defs>
    </symbol>

    <symbol id="users" viewBox="0 0 14 13" fill="none" stroke="currentColor">
        <path d="M9.16732 11.5V10.3333C9.16732 9.71449 8.92147 9.121 8.48385 8.68342C8.04623 8.24583 7.45269 8 6.8338 8H3.33352C2.71463 8 2.12109 8.24583 1.68347 8.68342C1.24585 9.121 1 9.71449 1 10.3333V11.5M9.16732 1.07463C9.66772 1.20434 10.1109 1.49653 10.4272 1.90533C10.7436 2.31413 10.9152 2.81639 10.9152 3.33329C10.9152 3.85019 10.7436 4.35246 10.4272 4.76126C10.1109 5.17005 9.66772 5.46224 9.16732 5.59196M12.6676 11.4999V10.3333C12.6672 9.81627 12.4951 9.31405 12.1784 8.90545C11.8616 8.49685 11.4181 8.20501 10.9175 8.07576M7.41718 3.33333C7.41718 4.622 6.37243 5.66667 5.08366 5.66667C3.79489 5.66667 2.75014 4.622 2.75014 3.33333C2.75014 2.04467 3.79489 1 5.08366 1C6.37243 1 7.41718 2.04467 7.41718 3.33333Z" stroke="currentColor" stroke-width="2" stroke-linecap="round"/>
    </symbol>

    <symbol id="zzip" viewBox="0 0 20 22" fill="none" stroke="currentColor">
        <path d="M1.46831 12.8503C1.62857 12.9509 1.81408 13.004 2.0033 13.0033H9.00251C9.16425 13.0028 9.3237 13.0415 9.46719 13.1162C9.61067 13.1908 9.73391 13.2992 9.82633 13.4319C9.91875 13.5647 9.97759 13.7179 9.99781 13.8784C10.018 14.0389 9.99902 14.2019 9.94241 14.3534L8.02262 20.3738C7.99255 20.4831 8.00054 20.5995 8.04528 20.7037C8.09003 20.8079 8.16887 20.8938 8.26886 20.9473C8.36886 21.0008 8.48407 21.0187 8.59558 20.9981C8.70709 20.9774 8.80827 20.9195 8.88253 20.8338L18.7814 10.6332C18.9006 10.4862 18.9757 10.3084 18.9979 10.1205C19.0201 9.93255 18.9885 9.74217 18.9069 9.57146C18.8252 9.40075 18.6967 9.25673 18.5365 9.15611C18.3762 9.0555 18.1907 9.00244 18.0015 9.00308H11.0023C10.8406 9.00361 10.6811 8.96489 10.5376 8.89024C10.3941 8.81559 10.2709 8.70724 10.1785 8.57448C10.0861 8.44173 10.0272 8.28853 10.007 8.12804C9.98677 7.96754 10.0058 7.80454 10.0624 7.653L11.9822 1.63264C12.0123 1.52329 12.0043 1.40695 11.9595 1.30273C11.9148 1.19851 11.8359 1.11261 11.7359 1.05911C11.6359 1.00562 11.5207 0.987715 11.4092 1.00834C11.2977 1.02896 11.1965 1.08689 11.1223 1.17262L1.22339 11.3732C1.10418 11.5202 1.02911 11.698 1.00691 11.8859C0.984705 12.0739 1.01627 12.2642 1.09795 12.4349C1.17962 12.6057 1.30805 12.7497 1.46831 12.8503Z" stroke="currentColor" stroke-width="2" stroke-linecap="round"/>
    </symbol></svg>